<?xml version="1.0" encoding="utf-8"?>
<!-- Generator: Adobe Illustrator 23.1.0, SVG Export Plug-In . SVG Version: 6.00 Build 0)  -->
<svg version="1.1" id="Icon" xmlns="http://www.w3.org/2000/svg" xmlns:xlink="http://www.w3.org/1999/xlink" x="0px" y="0px"
	 viewBox="0 0 123 137" style="enable-background:new 0 0 123 137;" xml:space="preserve">
<style type="text/css">
	.st0{fill:#9C27B0;}
	.st1{fill:#3F51B5;}
	.st2{fill:#2196F3;}
	.st3{fill:#4CAF50;}
	.st4{fill:#FFEB3B;}
	.st5{fill:#FF9800;}
	.st6{fill:#F44336;}
</style>
<polygon id="Lockpick__x23_7_-_Arm_and_Head" class="st0" points="75.9,97.06 122.04,70.42 115.71,69.46 117.57,70.69 84.9,86.09 
	76.33,85.26 69.74,89.07 "/>
<path id="Lockpick__x23_7_-_Handle" class="st0" d="M72,87.76l-67.55,39c-2.39,1.38-3.21,4.44-1.83,6.83h0
	c1.38,2.39,4.44,3.21,6.83,1.83l67.55-39c2.39-1.38,3.21-4.44,1.83-6.83l0,0C77.45,87.2,74.4,86.38,72,87.76z"/>
<polygon id="Lockpick__x23_6_-_Arm_and_Head" class="st1" points="67.01,87.18 109.78,51.29 106.32,50.28 105.43,52.33 
	102.62,52.09 101.73,54.14 99.55,54.66 98.66,56.71 96.49,57.23 96.24,60.05 93.42,59.8 92.53,61.85 90.36,62.37 88.7,65.07 
	60.73,84.62 "/>
<path id="Lockpick__x23_6_-_Handle" class="st1" d="M63.52,77.06L3.77,127.2c-2.12,1.78-2.39,4.93-0.62,7.04l0,0
	c1.78,2.12,4.93,2.39,7.04,0.62l59.75-50.14c2.12-1.78,2.39-4.93,0.62-7.04l0,0C68.79,75.56,65.64,75.28,63.52,77.06z"/>
<path id="Lockpick__x23_5_-_Arm_and_Head" class="st2" d="M59.63,72.82l25.46-33.46c0,0-0.25-2.82,1.81-3.71
	c2.05-0.89,1.93-2.3,1.93-2.3s-0.12-1.41,1.29-1.53c1.41-0.12,0.64-0.77,0.64-0.77s-2.82,0.25-2.69,1.66
	c0.12,1.41-2.69,1.66-3.86,4.6l-30.33,34.6L59.63,72.82z"/>
<path id="Lockpick__x23_5_-_Handle" class="st2" d="M52.85,68.44L2.72,128.2c-1.78,2.12-1.5,5.27,0.62,7.04h0
	c2.12,1.78,5.27,1.5,7.04-0.62l50.14-59.75c1.78-2.12,1.5-5.27-0.62-7.04l0,0C57.78,66.05,54.63,66.33,52.85,68.44z"/>
<path id="Lockpick__x23_5_-_Arm_and_Head_1_" class="st3" d="M48.59,67.9l23.5-40.7c0,0,2.5-4.33-1.7-9.06c0,0-1.75-1.67-0.5,0.87
	c1.6,3.23,2.46,3.73-0.04,8.06l-29.6,45.27L48.59,67.9z"/>
<path id="Lockpick__x23_4_-_Handle" class="st3" d="M40.93,61.16l-39,67.55c-1.38,2.39-0.56,5.45,1.83,6.83h0
	c2.39,1.38,5.45,0.56,6.83-1.83l39-67.55c1.38-2.39,0.56-5.45-1.83-6.83l0,0C45.36,57.95,42.31,58.77,40.93,61.16z"/>
<polygon id="Lockpick__x23_3_-_Arm_and_Head" class="st4" points="36.43,60.83 55.01,9.77 49.89,12.16 51.08,14.73 32.78,59.15 "/>
<path id="Lockpick__x23_3_-_Handle" class="st4" d="M27.49,56.16l-26.68,73.3c-0.94,2.59,0.39,5.46,2.99,6.41h0
	c2.59,0.94,5.46-0.39,6.41-2.99l26.68-73.3c0.94-2.59-0.39-5.46-2.99-6.41l0,0C31.3,52.22,28.43,53.56,27.49,56.16z"/>
<path id="Lockpick__x23_2_-_Head" class="st5" d="M25.61,4.7c-0.17,0.95,0.23,1.86,0.95,2.41c-1.43,0.23-2.62,1.33-2.89,2.83
	c-0.34,1.9,0.94,3.72,2.84,4.05c1.9,0.34,3.72-0.94,4.05-2.84c0.27-1.51-0.48-2.94-1.74-3.65c0.86-0.27,1.55-0.99,1.71-1.94
	c0.24-1.36-0.67-2.66-2.03-2.9C27.15,2.43,25.85,3.34,25.61,4.7z"/>
<polygon id="Lockpick__x23_2_-_Arm" class="st5" points="17.01,53.91 28.01,3.05 28.65,5.19 20.6,56.57 "/>
<path id="Lockpick__x23_2_-_Handle" class="st5" d="M14.06,53.39L0.51,130.2c-0.48,2.72,1.34,5.31,4.06,5.79h0
	c2.72,0.48,5.31-1.34,5.79-4.06l13.54-76.82c0.48-2.72-1.34-5.31-4.06-5.79h0C17.13,48.85,14.54,50.67,14.06,53.39z"/>
<path id="Lockpick__x23_1_-_Head" class="st6" d="M5.5,1.55C5.34,1.52,5.17,1.5,5,1.5C3.62,1.5,2.5,2.62,2.5,4S3.62,6.5,5,6.5
	c0.17,0,0.34-0.02,0.5-0.05V1.55z"/>
<polygon id="Lockpick__x23_1_-_Arm" class="st6" points="6.5,1.5 7.5,62.5 2.5,54.5 4.5,1.5 "/>
<path id="Lockpick__x23_1_-_Handle" class="st6" d="M0.5,53.5v78c0,2.76,2.24,5,5,5h0c2.76,0,5-2.24,5-5v-78c0-2.76-2.24-5-5-5h0
	C2.74,48.5,0.5,50.74,0.5,53.5z"/>
</svg>
