<?xml version="1.0" encoding="utf-8"?>
<!-- Generator: Adobe Illustrator 23.1.0, SVG Export Plug-In . SVG Version: 6.00 Build 0)  -->
<svg version="1.1" id="Icon" xmlns="http://www.w3.org/2000/svg" xmlns:xlink="http://www.w3.org/1999/xlink" x="0px" y="0px"
	 viewBox="0 0 160 161" style="enable-background:new 0 0 160 161;" xml:space="preserve">
<style type="text/css">
	.st0{fill:#294172;}
	.st1{fill:none;stroke:#3C6EB4;stroke-width:17.5862;}
	.st2{fill:#FFFFFF;}
</style>
<path id="Logo" class="st0" d="M79.85,0.43C35.6,0.43-0.27,36.29-0.3,80.53v62.02c0.02,10.04,8.17,18.18,18.22,18.18h61.96
	c44.25-0.02,80.12-35.89,80.12-80.15C160,36.32,124.12,0.43,79.85,0.43z M110.54,37.68c-2.53,0-3.45-0.49-7.16-0.49
	c-10.95,0-19.84,8.87-19.86,19.82v17.25c0,1.55,1.26,2.8,2.8,2.8l13.04,0c4.86,0,8.79,3.88,8.79,8.75c0,4.9-3.97,8.76-8.88,8.76
	H83.53v19.94c0,20.77-16.84,37.62-37.62,37.62c-3.15,0-5.39-0.36-8.31-1.12c-4.25-1.11-7.73-4.6-7.73-8.66
	c0-4.9,3.56-8.47,8.88-8.47c2.53,0,3.45,0.49,7.16,0.49c10.95,0,19.84-8.87,19.86-19.82V97.3c0-1.55-1.26-2.8-2.8-2.8l-13.04,0
	c-4.86,0-8.79-3.88-8.79-8.75c0-4.9,3.97-8.76,8.88-8.76h15.75V57.05c0-20.77,16.84-37.62,37.62-37.62c3.15,0,5.39,0.36,8.31,1.12
	c4.25,1.11,7.73,4.6,7.73,8.66C119.42,34.11,115.86,37.68,110.54,37.68z"/>
<g id="finity" transform="matrix(-1,0,0,-1,249.71151,284.2882)">
	<path class="st1" d="M103.38,85.81H74.58V57.01c0-15.9,12.9-28.81,28.81-28.81s28.81,12.9,28.81,28.81S119.28,85.81,103.38,85.81z"
		/>
</g>
<path id="In" class="st1" d="M45.91,85.76h28.81v28.81c0,15.9-12.9,28.81-28.81,28.81s-28.81-12.9-28.81-28.81
	S30.01,85.76,45.91,85.76z"/>
<g id="dom" transform="matrix(-1,0,0,-1,249.71152,284.28821)">
	<path class="st2" d="M65.76,94.58V57.05c0-20.77,16.84-37.62,37.62-37.62c3.15,0,5.39,0.36,8.31,1.12c4.25,1.11,7.73,4.6,7.73,8.66
		c0,4.9-3.56,8.47-8.88,8.47c-2.53,0-3.45-0.49-7.16-0.49c-10.95,0-19.84,8.87-19.86,19.82v17.25c0,1.55,1.26,2.8,2.8,2.8l13.04,0
		c4.86,0,8.79,3.88,8.79,8.75c0,4.9-3.97,8.76-8.88,8.76"/>
</g>
<path id="Free" class="st2" d="M83.53,76.99v37.54c0,20.77-16.84,37.62-37.62,37.62c-3.15,0-5.39-0.36-8.31-1.12
	c-4.25-1.11-7.73-4.6-7.73-8.66c0-4.9,3.56-8.47,8.88-8.47c2.53,0,3.45,0.49,7.16,0.49c10.95,0,19.84-8.87,19.86-19.82V97.3
	c0-1.55-1.26-2.8-2.8-2.8l-13.04,0c-4.86,0-8.79-3.88-8.79-8.75c0-4.9,3.97-8.76,8.88-8.76"/>
</svg>
