<?xml version="1.0" encoding="utf-8"?>
<!-- Generator: Adobe Illustrator 23.1.0, SVG Export Plug-In . SVG Version: 6.00 Build 0)  -->
<svg version="1.1" id="Icon" xmlns="http://www.w3.org/2000/svg" xmlns:xlink="http://www.w3.org/1999/xlink" x="0px" y="0px"
	 viewBox="0 0 160 161" style="enable-background:new 0 0 160 161;" xml:space="preserve">
<style type="text/css">
	.st0{fill:#294172;}
</style>
<path id="Logo" class="st0" d="M79.85,0.43C35.6,0.43-0.27,36.29-0.3,80.53v62.02c0.02,10.04,8.17,18.18,18.22,18.18h61.96
	c44.25-0.02,80.12-35.89,80.12-80.15C160,36.32,124.12,0.43,79.85,0.43z M110.54,37.68c-2.53,0-3.45-0.49-7.16-0.49
	c-10.95,0-19.84,8.87-19.86,19.82v17.25c0,1.55,1.26,2.8,2.8,2.8l13.04,0c4.86,0,8.79,3.88,8.79,8.75c0,4.9-3.97,8.76-8.88,8.76
	H83.53v19.94c0,20.77-16.84,37.62-37.62,37.62c-3.15,0-5.39-0.36-8.31-1.12c-4.25-1.11-7.73-4.6-7.73-8.66
	c0-4.9,3.56-8.47,8.88-8.47c2.53,0,3.45,0.49,7.16,0.49c10.95,0,19.84-8.87,19.86-19.82V97.3c0-1.55-1.26-2.8-2.8-2.8l-13.04,0
	c-4.86,0-8.79-3.88-8.79-8.75c0-4.9,3.97-8.76,8.88-8.76h15.75V57.05c0-20.77,16.84-37.62,37.62-37.62c3.15,0,5.39,0.36,8.31,1.12
	c4.25,1.11,7.73,4.6,7.73,8.66C119.42,34.11,115.86,37.68,110.54,37.68z"/>
</svg>
