<?xml version="1.0" encoding="utf-8"?>
<!-- Generator: Adobe Illustrator 23.1.0, SVG Export Plug-In . SVG Version: 6.00 Build 0)  -->
<svg version="1.1" id="Icon" xmlns="http://www.w3.org/2000/svg" xmlns:xlink="http://www.w3.org/1999/xlink" x="0px" y="0px"
	 viewBox="0 0 114 135" style="enable-background:new 0 0 114 135;" xml:space="preserve">
<style type="text/css">
	.st0{fill:#3DDC84;}
	.st1{fill:#00C3E3;}
	.st2{fill:#FF4554;}
</style>
<path id="Right_Leg" class="st0" d="M71,85L71,85c-4.42,0-8,3.58-8,8v34c0,4.42,3.58,8,8,8h0c4.42,0,8-3.58,8-8V93
	C79,88.58,75.42,85,71,85z"/>
<path id="Left_Leg" class="st0" d="M43,85L43,85c-4.42,0-8,3.58-8,8v34c0,4.42,3.58,8,8,8h0c4.42,0,8-3.58,8-8V93
	C51,88.58,47.42,85,43,85z"/>
<path id="Right_arm" class="st1" d="M106,45L106,45c-4.42,0-8,3.58-8,8v34c0,4.42,3.58,8,8,8h0c4.42,0,8-3.58,8-8V53
	C114,48.58,110.42,45,106,45z"/>
<path id="Body" class="st0" d="M94,46H20v55c0,3.87,3.13,7,7,7h60c3.87,0,7-3.13,7-7V46z"/>
<path id="Left_Arm" class="st2" d="M8,45L8,45c-4.42,0-8,3.58-8,8v34c0,4.42,3.58,8,8,8h0c4.42,0,8-3.58,8-8V53
	C16,48.58,12.42,45,8,45z"/>
<path id="Head" class="st0" d="M61,9h-8C34.77,9,20,23.77,20,42v0h74v0C94,23.77,79.23,9,61,9z M40,29c-1.66,0-3-1.34-3-3
	s1.34-3,3-3s3,1.34,3,3S41.66,29,40,29z M74,29c-1.66,0-3-1.34-3-3s1.34-3,3-3s3,1.34,3,3S75.66,29,74,29z"/>
<rect id="Right_Antenna" x="75.94" y="-0.11" transform="matrix(-0.866 -0.5 0.5 -0.866 139.8858 52.2601)" class="st0" width="2" height="15"/>
<rect id="Left_Antenna" x="36" y="0" transform="matrix(0.866 -0.5 0.5 0.866 1.2071 19.5048)" class="st0" width="2" height="15"/>
</svg>
