<?xml version="1.0" encoding="utf-8"?>
<!-- Generator: Adobe Illustrator 23.1.0, SVG Export Plug-In . SVG Version: 6.00 Build 0)  -->
<svg version="1.1" id="Icon" xmlns="http://www.w3.org/2000/svg" xmlns:xlink="http://www.w3.org/1999/xlink" x="0px" y="0px"
	 viewBox="0 0 121.48 160.17" style="enable-background:new 0 0 121.48 160.17;" xml:space="preserve">
<style type="text/css">
	.st0{fill:#2FBF5E;}
	.st1{fill:#67D095;}
	.st2{fill:#0196E2;}
	.st3{fill:none;stroke:#FF3020;stroke-width:7;}
	.st4{fill:#01BBE2;}
	.st5{fill:#FF5F53;}
</style>
<path id="Stem" class="st0" d="M53.94,101.83V153c0,3.96,3.21,7.17,7.17,7.17s7.17-3.21,7.17-7.17v-51.17H53.94z"/>
<path id="Bottom_Right" class="st1" d="M119.35,110.98L119.35,110.98c1.36-3.4,2.13-7.1,2.13-10.98c0-16.2-13.13-29.33-29.33-29.33
	c-1.78,0-3.52,0.17-5.22,0.47l0.18,0.53V82l-3,7.83l-3.21,3.13l0,0l-10.8,7.8l-8.99,1.07l-4.39,2.84L110.28,129l6.98-13.87
	c0.78-1.29,1.46-2.65,2.04-4.06L119.35,110.98z"/>
<circle id="Circle_in_Bottom_Left" class="st1" cx="24.28" cy="100" r="7.5"/>
<path id="Bottom_Left" class="st1" d="M61.68,102l-7.18-0.85l-3.56,1.84l-34.87,15.84l-4.54-9.03c-0.51-0.84-0.95-1.72-1.33-2.64
	l-0.03-0.06l0.01,0c-0.89-2.21-1.39-4.62-1.39-7.15c0-9.4,6.8-17.2,15.75-18.79l-9.3-5.94C6.88,80.39,1.31,89.63,1.31,100.17
	c0,3.88,0.77,7.59,2.14,10.98l-0.01,0l0.05,0.1c0.58,1.41,1.26,2.77,2.04,4.06l6.98,13.87l53.56-24.33L61.68,102z"/>
<path id="Top_Right" class="st2" d="M92.11,24.33c-15.58,0-28.32,12.15-29.27,27.5l10.44,0.84l10.42,9.17l3.42,9.83V82l-0.3,0.51
	c1.72,0.31,3.49,0.49,5.3,0.49c16.2,0,29.33-13.13,29.33-29.33S108.31,24.33,92.11,24.33z"/>
<path id="Top_Left" class="st3" d="M35.33,79.03c-1.18,0.25-2.39,0.42-3.62,0.5c-0.6,0.04-1.21,0.06-1.82,0.06
	c-14.46,0-26.18-11.72-26.18-26.18s11.72-26.18,26.18-26.18c12.1,0,22.28,8.21,25.29,19.36c0.28,1.03,0.49,2.08,0.64,3.15"/>
<g id="Center">
	<path class="st4" d="M61.11,53c12.52,0,22.67,10.15,22.67,22.67S73.63,98.33,61.11,98.33S38.44,88.19,38.44,75.67
		S48.59,53,61.11,53 M61.11,46c-16.36,0-29.67,13.31-29.67,29.67s13.31,29.67,29.67,29.67s29.67-13.31,29.67-29.67
		S77.47,46,61.11,46L61.11,46z"/>
</g>
<circle id="Top" class="st5" cx="61.11" cy="29.33" r="29.33"/>
</svg>
