<?xml version="1.0" encoding="utf-8"?>
<!-- Generator: Adobe Illustrator 23.1.0, SVG Export Plug-In . SVG Version: 6.00 Build 0)  -->
<svg version="1.1" id="Icon" xmlns="http://www.w3.org/2000/svg" xmlns:xlink="http://www.w3.org/1999/xlink" x="0px" y="0px"
	 viewBox="0 0 160 160" style="enable-background:new 0 0 160 160;" xml:space="preserve">
<style type="text/css">
	.st0{fill-rule:evenodd;clip-rule:evenodd;fill:#1793D1;}
</style>
<path id="Logo" class="st0" d="M79.97,0.55C72.93,17.8,68.69,29.08,60.86,45.82c4.8,5.09,10.7,11.02,20.27,17.71
	c-10.29-4.24-17.31-8.49-22.56-12.9c-10.02,20.92-25.73,50.71-57.6,107.98c25.05-14.46,44.47-23.38,62.57-26.78
	c-0.78-3.34-1.22-6.96-1.19-10.73l0.03-0.8c0.4-16.05,8.75-28.39,18.64-27.55c9.89,0.84,17.58,14.54,17.18,30.58
	c-0.07,3.02-0.42,5.93-1.01,8.62c17.9,3.5,37.11,12.39,61.82,26.66c-4.87-8.97-9.22-17.06-13.38-24.76
	c-6.54-5.07-13.37-11.67-27.29-18.81c9.57,2.49,16.42,5.35,21.76,8.56C97.87,44.98,94.45,34.53,79.97,0.55z"/>
</svg>
