<?xml version="1.0" encoding="utf-8"?>
<!-- Generator: Adobe Illustrator 23.1.0, SVG Export Plug-In . SVG Version: 6.00 Build 0)  -->
<svg version="1.1" id="Icon" xmlns="http://www.w3.org/2000/svg" xmlns:xlink="http://www.w3.org/1999/xlink" x="0px" y="0px"
	 viewBox="0 0 170 135" style="enable-background:new 0 0 170 135;" xml:space="preserve">
<style type="text/css">
	.st0{fill-rule:evenodd;clip-rule:evenodd;fill:#FFFFFF;}
	.st1{fill-rule:evenodd;clip-rule:evenodd;fill:#90B9D9;}
</style>
<path id="Shape" class="st0" d="M139.89,135.18C130.5,118.94,109.16,97.59,85,83.58C62.71,70.66,39,69.64,21.47,67.99l47.8-60.6
	c6.82-8.65,19.4-10.15,28.08-3.36c1.25,0.98,2.38,2.11,3.37,3.36l67.42,85.47c2.85,3.61,2.85,8.7,0,12.31l-20.67,26.2
	C145.59,133.76,142.79,135.1,139.89,135.18z"/>
<path id="Highlight" class="st1" d="M117.03,127.23c-10.2-2.81-20.94-4.31-32.03-4.31c-12.92,0-25.37,2.04-37.04,5.8
	c-5.23,1.69-10.3,3.73-15.19,6.08c-3.77,0.95-7.83-0.37-10.3-3.51L1.85,105.18c-2.85-3.61-2.85-8.7,0-12.31l20.29-25.72
	c0.29,0,0.57,0,0.86,0c50.56,0,94.72,27.28,118.46,67.86c-1.28,0.24-2.61,0.23-3.92-0.05C131.01,131.79,124.15,129.19,117.03,127.23
	z"/>
</svg>
