<?xml version="1.0" encoding="utf-8"?>
<!-- Generator: Adobe Illustrator 23.1.0, SVG Export Plug-In . SVG Version: 6.00 Build 0)  -->
<svg version="1.1" id="Icon" xmlns="http://www.w3.org/2000/svg" xmlns:xlink="http://www.w3.org/1999/xlink" x="0px" y="0px"
	 viewBox="0 0 180 145" style="enable-background:new 0 0 180 145;" xml:space="preserve">
<style type="text/css">
	.st0{fill-rule:evenodd;clip-rule:evenodd;fill:#FFFFFF;}
</style>
<path id="Logo" class="st0" d="M176.95,94.86L109.53,9.38c-4.76-6.03-11.92-9.5-19.66-9.5c-7.73,0-14.89,3.47-19.65,9.5L2.8,94.86
	c-4.3,5.45-4.3,13.06,0,18.5l20.61,26.13c2.86,3.63,7.16,5.71,11.79,5.71c1.23,0,2.46-0.15,3.65-0.45l0.5-0.12l0.46-0.22
	c4.7-2.27,9.59-4.23,14.56-5.83c11.43-3.69,23.37-5.56,35.5-5.56s24.08,1.87,35.5,5.56c4.96,1.6,9.86,3.56,14.56,5.83l0.46,0.22
	l0.5,0.12c1.19,0.3,2.42,0.45,3.65,0.45c0,0,0,0,0,0c4.63,0,8.93-2.08,11.79-5.71l20.61-26.13
	C181.24,107.91,181.24,100.3,176.95,94.86z M142.31,141.01c-6.53-3.17-13.38-5.77-20.5-7.73c-10.2-2.81-20.94-4.31-32.03-4.31
	c-12.92,0-25.37,2.04-37.04,5.8c-5.23,1.69-10.3,3.73-15.19,6.08c-3.77,0.95-7.83-0.37-10.3-3.51L6.62,111.22
	c-2.85-3.61-2.85-8.7,0-12.31L26.91,73.2c0.29,0,0.57,0,0.86,0c50.56,0,94.72,27.28,118.46,67.86
	C144.94,141.3,143.61,141.29,142.31,141.01z"/>
</svg>
