<?xml version="1.0" encoding="utf-8"?>
<!-- Generator: Adobe Illustrator 23.1.0, SVG Export Plug-In . SVG Version: 6.00 Build 0)  -->
<svg version="1.1" id="Icon" xmlns="http://www.w3.org/2000/svg" xmlns:xlink="http://www.w3.org/1999/xlink" x="0px" y="0px"
	 viewBox="0 0 169.76 154.64" style="enable-background:new 0 0 169.76 154.64;" xml:space="preserve">
<style type="text/css">
	.st0{fill:#FFFFFF;}
	.st1{fill:#00FFC9;}
	.st2{fill:#BDBDBD;}
</style>
<g id="Outer_Circle">
	<path class="st0" d="M120.37,10.82c19.93,10.7,34.48,30.06,38.66,53.06l3.09-0.09c-4.23-24.01-19.35-44.25-40.1-55.43L120.37,10.82
		z"/>
	<path class="st0" d="M12.72,108.41l2.49-0.97c-2.11-4.88-3.72-10.03-4.76-15.38l-2.55,0.8C8.97,98.26,10.6,103.47,12.72,108.41z"/>
	<path class="st0" d="M9.38,70.33c2.2-23.43,15.09-43.75,33.74-56.03l-1.73-2.15C22.16,24.97,8.92,46.05,6.72,70.33H9.38z"/>
	<path class="st0" d="M159.74,86.38c-3.27,27.86-21.68,51.08-46.78,61.23l1.18,2.68c26.18-10.54,45.36-34.77,48.67-63.84
		L159.74,86.38z"/>
</g>
<g id="Inner_Circle">
	<path class="st0" d="M65.03,128.03c-13.94-5.42-25.09-16.43-30.67-30.3l-1.86,0.66c5.76,14.41,17.29,25.88,31.74,31.56
		L65.03,128.03z"/>
	<path class="st0" d="M117.74,120.43c-4.13,3.19-8.73,5.79-13.68,7.69l0.88,2.05c5.01-1.91,9.68-4.51,13.89-7.7L117.74,120.43z"/>
</g>
<rect id="Left_Line" x="17.43" y="77.42" class="st0" width="15.07" height="2.08"/>
<rect id="Right_Line" x="136.03" y="77.42" class="st0" width="16.44" height="2.08"/>
<rect id="Left_Line_Connecting_Circles" x="11.45" y="101.9" transform="matrix(0.9159 -0.4015 0.4015 0.9159 -39.3501 18.0897)" class="st0" width="24.08" height="2.08"/>
<rect id="Line_for_8_O_x27_clock_Circles_1_" x="35.23" y="119.99" transform="matrix(0.7071 -0.7071 0.7071 0.7071 -73.5 64.6129)" class="st0" width="12.04" height="2.08"/>
<rect id="Line_for_7_O_x27_clock_Circles" x="53.83" y="134.32" transform="matrix(0.3651 -0.931 0.931 0.3651 -87.3394 142.6473)" class="st0" width="14.16" height="2.08"/>
<rect id="Right_Line_connecting_Circles" x="98.43" y="137.79" transform="matrix(-0.4147 -0.91 0.91 -0.4147 29.403 296.5705)" class="st0" width="23.29" height="2.08"/>
<g id="_x31_1_O_x27_clock_Circles">
	<path class="st1" d="M54.71,0.44c-4.13,0-7.48,3.35-7.48,7.48c0,4.13,3.35,7.48,7.48,7.48s7.48-3.35,7.48-7.48
		C62.19,3.79,58.84,0.44,54.71,0.44z M54.71,14.1c-3.41,0-6.18-2.77-6.18-6.18c0-3.41,2.77-6.18,6.18-6.18s6.18,2.77,6.18,6.18
		C60.89,11.33,58.12,14.1,54.71,14.1z"/>
	<circle class="st1" cx="54.71" cy="7.92" r="4.78"/>
</g>
<g id="_x39__O_x27_clock_Circles">
	<path class="st1" d="M8.9,69.56c-4.92,0-8.9,3.98-8.9,8.9c0,4.92,3.98,8.9,8.9,8.9s8.9-3.98,8.9-8.9
		C17.8,73.54,13.82,69.56,8.9,69.56z M8.9,85.81c-4.06,0-7.35-3.29-7.35-7.35c0-4.06,3.29-7.35,7.35-7.35s7.35,3.29,7.35,7.35
		C16.25,82.52,12.96,85.81,8.9,85.81z"/>
	<circle class="st1" cx="8.9" cy="78.46" r="6.07"/>
</g>
<g id="_x38__O_x27_clock_Circles">
	<path class="st1" d="M30.13,126.53c-3.1,0-5.62,2.51-5.62,5.62c0,3.1,2.51,5.62,5.62,5.62s5.62-2.51,5.62-5.62
		C35.75,129.04,33.23,126.53,30.13,126.53z M30.13,136.78c-2.56,0-4.63-2.07-4.63-4.63c0-2.56,2.07-4.63,4.63-4.63
		s4.63,2.07,4.63,4.63C34.77,134.7,32.69,136.78,30.13,136.78z"/>
	<circle class="st1" cx="30.13" cy="132.14" r="3.63"/>
</g>
<g id="_x37__O_x27_clock_Circles">
	<path class="st1" d="M55.71,140.27c-3.97,0-7.19,3.22-7.19,7.19c0,3.97,3.22,7.19,7.19,7.19s7.19-3.22,7.19-7.19
		C62.9,143.49,59.68,140.27,55.71,140.27z M55.71,153.39c-3.28,0-5.93-2.66-5.93-5.93c0-3.28,2.66-5.93,5.93-5.93
		c3.28,0,5.93,2.66,5.93,5.93C61.64,150.73,58.98,153.39,55.71,153.39z"/>
	<circle class="st1" cx="55.71" cy="147.46" r="4.51"/>
</g>
<g id="_x35__O_x27_clock_Circles">
	<path class="st1" d="M123.24,110.92c-3.82,0-6.91,3.09-6.91,6.91c0,3.82,3.09,6.91,6.91,6.91c3.82,0,6.91-3.09,6.91-6.91
		C130.15,114.02,127.05,110.92,123.24,110.92z M123.24,123.53c-3.15,0-5.7-2.55-5.7-5.7c0-3.15,2.55-5.7,5.7-5.7s5.7,2.55,5.7,5.7
		C128.94,120.98,126.39,123.53,123.24,123.53z"/>
	<circle class="st1" cx="123.24" cy="117.83" r="4.31"/>
</g>
<g id="_x33__O_x27_clock_Circles">
	<path class="st1" d="M160.86,69.58c-4.92,0-8.9,3.98-8.9,8.9c0,4.92,3.98,8.9,8.9,8.9s8.9-3.98,8.9-8.9
		C169.76,73.57,165.77,69.58,160.86,69.58z M160.86,85.83c-4.06,0-7.35-3.29-7.35-7.35c0-4.06,3.29-7.35,7.35-7.35
		s7.35,3.29,7.35,7.35C168.2,82.54,164.92,85.83,160.86,85.83z"/>
	<circle class="st1" cx="160.86" cy="78.48" r="6.07"/>
</g>
<g id="_x31__O_x27_clock_Circles">
	<path class="st1" d="M115.33,0c-3.98,0-7.2,3.22-7.2,7.2c0,3.98,3.22,7.2,7.2,7.2c3.98,0,7.2-3.22,7.2-7.2
		C122.53,3.22,119.31,0,115.33,0z M115.33,13.15c-3.28,0-5.94-2.66-5.94-5.94c0-3.28,2.66-5.94,5.94-5.94
		c3.28,0,5.94,2.66,5.94,5.94C121.27,10.49,118.61,13.15,115.33,13.15z"/>
	<circle class="st1" cx="115.33" cy="7.2" r="4.55"/>
</g>
<path id="Gear" class="st2" d="M112.9,72.18c0-3.65,2.11-6.8,5.18-8.31l-5.29-8.93c-1.5,1.04-3.32,1.66-5.29,1.66
	c-5.12,0-9.27-4.15-9.27-9.27c0-1.04,0.18-2.04,0.5-2.98l-9.14-2.49c-0.87,4.22-4.6,7.4-9.08,7.4c-3.77,0-7.01-2.25-8.46-5.48
	l-9.68,5.42c1.01,1.49,1.61,3.28,1.61,5.22c0,5.12-4.15,9.27-9.27,9.27c-1.11,0-2.17-0.2-3.15-0.56l-2.61,9.13
	c4.58,0.57,8.12,4.46,8.12,9.19c0,4.02-2.57,7.44-6.15,8.72l5.48,9.57c1.45-0.94,3.18-1.5,5.04-1.5c5.12,0,9.27,4.15,9.27,9.27
	c0,0.99-0.16,1.94-0.45,2.83l10.4,2.75c0.82-4.28,4.58-7.52,9.1-7.52c3.65,0,6.79,2.11,8.31,5.17l9.22-5.37
	c-1.08-1.52-1.73-3.37-1.73-5.38c0-5.12,4.15-9.27,9.27-9.27c1.1,0,2.15,0.2,3.12,0.55l2.57-9.98
	C116.19,80.52,112.9,76.74,112.9,72.18z M84.66,96.19c-10.36,0-18.77-8.4-18.77-18.77s8.4-18.77,18.77-18.77
	c10.36,0,18.77,8.4,18.77,18.77S95.02,96.19,84.66,96.19z"/>
</svg>
