<?xml version="1.0" encoding="utf-8"?>
<!-- Generator: Adobe Illustrator 23.1.0, SVG Export Plug-In . SVG Version: 6.00 Build 0)  -->
<svg version="1.1" id="Icon_1_" xmlns="http://www.w3.org/2000/svg" xmlns:xlink="http://www.w3.org/1999/xlink" x="0px" y="0px"
	 viewBox="0 0 160 160" style="enable-background:new 0 0 160 160;" xml:space="preserve">
<style type="text/css">
	.st0{fill-rule:evenodd;clip-rule:evenodd;fill:#54487A;}
</style>
<path id="Logo" class="st0" d="M3.26,127.37c0.02-6.74,5.75-16.15,13.88-24.69c5.44-5.71,10.96-10.73,23.01-20.99
	c-8.33-4.57-21.28-10.09-27.79-17.31c-2.41-2.67-6.76-8.73-5.92-16.81C8.17,31.08,28.52,6.06,57.44,0.77
	c9.62-1.76,20.67-0.49,29.77,3.6c28.53,12.83,63.42,44.69,67.71,60.25c1.51,5.48,1.22,14.21-1.38,19.07
	c-3.23,6.03-14.4,18.28-29.69,30.91c-23.99,19.83-57.61,41.12-82.71,44.7c-8.11,1.16-16.4-0.05-22.21-3.33
	c-9.1-5.13-12.12-11.99-13.18-14.04C2.9,136.46,3.25,129.54,3.26,127.37L3.26,127.37z M70.78,51.67c0.31-3.82,15.29-0.02,14.34,3.01
	C84.13,57.87,70.42,56.05,70.78,51.67L70.78,51.67z"/>
</svg>
