<?xml version="1.0" encoding="utf-8"?>
<!-- Generator: Adobe Illustrator 23.1.0, SVG Export Plug-In . SVG Version: 6.00 Build 0)  -->
<svg version="1.1" id="Icon" xmlns="http://www.w3.org/2000/svg" xmlns:xlink="http://www.w3.org/1999/xlink" x="0px" y="0px"
	 viewBox="0 0 138 137" style="enable-background:new 0 0 138 137;" xml:space="preserve">
<style type="text/css">
	.st0{fill:#DD4814;}
</style>
<path id="Logo" class="st0" d="M69,0C31.17,0,0.5,30.67,0.5,68.5C0.5,106.33,31.17,137,69,137s68.5-30.67,68.5-68.5
	C137.5,30.67,106.83,0,69,0z M29.95,74.38C28.21,76.58,25.52,78,22.5,78c-5.25,0-9.5-4.25-9.5-9.5s4.25-9.5,9.5-9.5
	c3.02,0,5.71,1.42,7.45,3.62c1.68-11.26,8.1-20.96,17.18-27.01l6.52,11.3c-6.75,4.8-11.15,12.68-11.15,21.6
	c0,8.89,4.38,16.74,11.09,21.55l-6.52,11.3C38.02,95.3,31.63,85.61,29.95,74.38z M102,108.5c0,5.25-4.25,9.5-9.5,9.5
	s-9.5-4.25-9.5-9.5c0-1.16,0.22-2.26,0.6-3.29c-4.52,1.8-9.44,2.79-14.6,2.79c-6.33,0-12.31-1.5-17.61-4.14l6.52-11.29
	C61.29,94.12,65.04,95,69,95c13.79,0,25.12-10.54,26.38-24h13.03c-0.71,11.34-6.2,21.37-14.48,28.12
	C98.5,99.81,102,103.74,102,108.5z M95.38,66C94.12,52.54,82.79,42,69,42c-3.93,0-7.66,0.86-11.02,2.4l-6.52-11.29
	C56.75,30.48,62.7,29,69,29c5.16,0,10.08,0.99,14.6,2.79c-0.38-1.03-0.6-2.13-0.6-3.29c0-5.25,4.25-9.5,9.5-9.5s9.5,4.25,9.5,9.5
	c0,4.76-3.5,8.69-8.07,9.38c8.28,6.75,13.77,16.78,14.48,28.12H95.38z"/>
</svg>
