<?xml version="1.0" encoding="utf-8"?>
<!-- Generator: Adobe Illustrator 23.1.0, SVG Export Plug-In . SVG Version: 6.00 Build 0)  -->
<svg version="1.1" id="Icon" xmlns="http://www.w3.org/2000/svg" xmlns:xlink="http://www.w3.org/1999/xlink" x="0px" y="0px"
	 viewBox="0 0 160.22 95.56" style="enable-background:new 0 0 160.22 95.56;" xml:space="preserve">
<style type="text/css">
	.st0{fill:#00C3E3;}
	.st1{fill:#FF4554;}
</style>
<path id="Right_Joy-Con" class="st0" d="M142.22,0h-12v75.78h12c9.94,0,18-8.06,18-18V18C160.22,8.06,152.16,0,142.22,0z
	 M143.82,11.19c1.86,0,3.37,1.51,3.37,3.37c0,1.86-1.51,3.37-3.37,3.37c-1.86,0-3.37-1.51-3.37-3.37
	C140.45,12.7,141.96,11.19,143.82,11.19z M147.19,26.23c0,1.86-1.51,3.37-3.37,3.37c-1.86,0-3.37-1.51-3.37-3.37
	c0-1.86,1.51-3.37,3.37-3.37C145.68,22.87,147.19,24.37,147.19,26.23z M134.57,20.4c0-1.86,1.51-3.37,3.37-3.37
	c1.86,0,3.37,1.51,3.37,3.37c0,1.86-1.51,3.37-3.37,3.37C136.07,23.77,134.57,22.26,134.57,20.4z M143.63,49.01
	c-4.03,0-7.3-3.27-7.3-7.3c0-4.03,3.27-7.3,7.3-7.3s7.3,3.27,7.3,7.3C150.93,45.74,147.67,49.01,143.63,49.01z M149.34,23.77
	c-1.86,0-3.37-1.51-3.37-3.37c0-1.86,1.51-3.37,3.37-3.37s3.37,1.51,3.37,3.37C152.7,22.26,151.19,23.77,149.34,23.77z"/>
<path id="Switch" d="M30.44,19.78v75.78h99.78V19.78H30.44z M121.33,86.67h-82V28.89h82V86.67z"/>
<path id="Left_Joy-Con" class="st1" d="M30.44,19.78H18c-9.94,0-18,8.06-18,18v39.78c0,9.94,8.06,18,18,18h12.44V19.78z
	 M17.14,31.38c4.03,0,7.3,3.27,7.3,7.3c0,4.03-3.27,7.3-7.3,7.3c-4.03,0-7.3-3.27-7.3-7.3C9.84,34.65,13.11,31.38,17.14,31.38z
	 M20.69,54.7c0,1.86-1.51,3.37-3.37,3.37s-3.37-1.51-3.37-3.37s1.51-3.37,3.37-3.37S20.69,52.84,20.69,54.7z M11.44,63.91
	c-1.86,0-3.37-1.51-3.37-3.37c0-1.86,1.51-3.37,3.37-3.37c1.86,0,3.37,1.51,3.37,3.37C14.81,62.4,13.3,63.91,11.44,63.91z
	 M17.33,69.74c-1.86,0-3.37-1.51-3.37-3.37c0-1.86,1.51-3.37,3.37-3.37s3.37,1.51,3.37,3.37C20.69,68.23,19.19,69.74,17.33,69.74z
	 M22.84,63.91c-1.86,0-3.37-1.51-3.37-3.37c0-1.86,1.51-3.37,3.37-3.37s3.37,1.51,3.37,3.37C26.21,62.4,24.7,63.91,22.84,63.91z"/>
</svg>
