<?xml version="1.0" encoding="utf-8"?>
<!-- Generator: Adobe Illustrator 23.1.0, SVG Export Plug-In . SVG Version: 6.00 Build 0)  -->
<svg version="1.1"
	 id="Icon" inkscape:export-filename="./Tux Mono.png" inkscape:export-xdpi="90" inkscape:export-ydpi="90" inkscape:version="0.91 r13725" sodipodi:docname="Tux Mono.svg" xmlns:cc="http://creativecommons.org/ns#" xmlns:dc="http://purl.org/dc/elements/1.1/" xmlns:inkscape="http://www.inkscape.org/namespaces/inkscape" xmlns:rdf="http://www.w3.org/1999/02/22-rdf-syntax-ns#" xmlns:sodipodi="http://sodipodi.sourceforge.net/DTD/sodipodi-0.dtd" xmlns:svg="http://www.w3.org/2000/svg"
	 xmlns="http://www.w3.org/2000/svg" xmlns:xlink="http://www.w3.org/1999/xlink" x="0px" y="0px" viewBox="0 0 712 860"
	 style="enable-background:new 0 0 712 860;" xml:space="preserve">
<style type="text/css">
	.st0{fill:#202020;}
</style>
<path id="Mouth" inkscape:connector-curvature="0" sodipodi:nodetypes="sscccccssszzs" class="st0" d="M382.89,261.71
	c-15.64,8.15-33.91,18.04-53.35,18.04c-19.43,0-34.78-8.98-45.82-17.73c-5.52-4.37-10-8.72-13.38-11.88
	c-5.86-4.63-5.16-11.12-2.75-10.93c4.04,0.5,4.65,5.82,7.19,8.2c3.44,3.22,7.75,7.39,12.97,11.53
	c10.44,8.27,24.36,16.32,41.79,16.32c17.4,0,37.71-10.22,50.11-17.17c7.02-3.94,15.96-11,23.26-16.36c5.58-4.1,5.38-9.03,9.99-8.49
	s1.2,5.46-5.25,11.09S391.09,257.44,382.89,261.71z"/>
<path id="Body" class="st0" d="M683.91,677.74c-0.01-0.01-0.02-0.02-0.02-0.03c-6.07-6.85-8.96-19.55-12.07-33.08
	c-3.1-13.52-6.57-28.1-17.67-37.55c-0.02-0.02-0.05-0.04-0.07-0.06c-2.2-1.92-4.46-3.54-6.73-4.89c-2.28-1.35-4.59-2.45-6.9-3.32
	c15.43-45.76,9.38-91.33-6.2-132.5c-19.11-50.54-52.48-94.57-77.97-124.69c-28.53-35.99-56.43-70.15-55.88-120.61
	C501.25,144,508.87,1.19,373.35,1c-5.51-0.01-11.26,0.22-17.25,0.7C204.66,13.89,244.83,173.89,242.58,227.46
	c-2.77,39.18-10.71,70.06-37.66,108.36c-31.65,37.64-76.23,98.57-97.34,162c-9.96,29.93-14.7,60.44-10.33,89.32
	c-1.37,1.23-2.67,2.52-3.92,3.84c-9.29,9.93-16.16,21.95-23.81,30.04c-7.15,7.14-17.33,9.85-28.53,13.86
	c-11.2,4.02-23.49,9.94-30.95,24.26c0,0,0,0.01-0.01,0.01c-0.01,0.02-0.02,0.05-0.04,0.07c-3.51,6.55-4.65,13.62-4.65,20.79
	c0,6.63,0.98,13.35,1.97,19.82c2.06,13.46,4.15,26.19,1.38,34.81c-8.86,24.23-10,40.98-3.76,53.14
	c6.26,12.18,19.11,17.55,33.64,20.59c29.06,6.06,68.41,4.56,99.42,21l2.67-5.03l-2.64,5.04c33.2,17.36,66.86,23.52,93.71,17.39
	c19.48-4.44,35.28-16.04,43.4-33.88c21-0.1,44.05-9,80.97-11.03c25.05-2.02,56.34,8.9,92.33,6.9c0.94,3.9,2.3,7.66,4.16,11.23
	c0.02,0.03,0.04,0.07,0.06,0.1c13.95,27.9,39.87,40.66,67.5,38.48c27.66-2.18,57.07-18.49,80.85-46.78l-4.36-3.66l4.39,3.62
	c22.66-27.48,60.27-38.87,85.22-53.91c12.47-7.52,22.58-16.94,23.37-30.62C710.4,713.55,702.37,698.23,683.91,677.74z
	 M349.29,174.84c-0.11-10.06,1.54-18.69,5.41-27.45c3.87-8.77,8.66-15.07,15.4-20.2c6.75-5.12,13.38-7.47,21.23-7.55h0.37
	c7.68,0,14.25,2.26,21,7.15c6.85,4.98,11.79,11.2,15.77,19.9c3.9,8.48,5.78,16.77,5.97,26.6c0,0.26,0,0.48,0.07,0.74l0,0
	c0.08,10.09-1.66,18.68-5.49,27.45c-2.18,5-4.69,9.2-7.7,12.84c-1.02-0.49-2.08-0.96-3.18-1.41c-3.81-1.63-7.18-2.97-10.2-4.11
	c-3.02-1.14-5.38-1.92-7.81-2.76c1.76-2.13,5.23-4.64,6.52-7.79c1.96-4.75,2.92-9.39,3.1-14.92c0-0.22,0.07-0.41,0.07-0.67
	c0.11-5.3-0.59-9.83-2.14-14.47c-1.62-4.87-3.68-8.37-6.66-11.28c-2.99-2.91-5.97-4.23-9.55-4.35c-0.17-0.01-0.33-0.01-0.5-0.01
	c-3.36,0.01-6.28,1.17-9.3,3.69c-3.17,2.65-5.52,6.04-7.48,10.76c-1.95,4.72-2.91,9.4-3.1,14.96c-0.03,0.22-0.03,0.41-0.03,0.63
	c-0.07,3.06,0.13,5.86,0.6,8.58c-6.88-3.43-15.68-5.93-21.76-7.38c-0.35-2.63-0.55-5.34-0.61-8.18V174.84z M259.93,153.17
	c2.4-7.74,5.6-13.34,10.25-17.94c4.64-4.61,9.32-6.93,14.96-7.22c0.44-0.02,0.87-0.03,1.3-0.03c5.11,0.01,9.67,1.71,14.39,5.48
	c5.12,4.09,8.99,9.32,12.23,16.69c3.25,7.37,4.98,14.74,5.46,23.44v0.07c0.23,3.65,0.2,7.09-0.09,10.42h0
	c-1.01,0.29-1.99,0.6-2.96,0.93c-5.5,1.9-9.87,4-14.09,6.79c0.41-2.92,0.47-5.88,0.15-9.19c-0.03-0.18-0.03-0.33-0.03-0.51
	c-0.44-4.39-1.37-8.07-2.92-11.79c-1.65-3.87-3.5-6.6-5.93-8.7c-2.2-1.9-4.28-2.78-6.58-2.76c-0.23,0-0.47,0.01-0.71,0.03
	c-2.58,0.22-4.72,1.48-6.75,3.95c-2.02,2.46-3.35,5.52-4.31,9.58c-0.96,4.05-1.21,8.03-0.81,12.6c0,0.18,0.04,0.33,0.04,0.51
	c0.44,4.43,1.33,8.11,2.91,11.83c1.62,3.83,3.5,6.56,5.93,8.66c0.41,0.35,0.81,0.67,1.21,0.95c-2.52,1.95-4.21,3.33-6.29,4.85
	c-1.33,0.97-2.91,2.13-4.75,3.49c-4.01-3.76-7.14-8.48-9.88-14.71c-3.24-7.36-4.97-14.73-5.49-23.43v-0.07
	C256.69,168.39,257.54,160.91,259.93,153.17z M263.86,229.84c8-6,13.56-10.08,17.27-12.79c3.68-2.7,5.2-3.72,6.38-4.84
	c0-0.01,0.01-0.01,0.01-0.02l0.01-0.01c6.01-5.69,15.6-16.06,30.05-21.03c4.97-1.72,10.52-2.82,16.73-2.84
	c11.86-0.05,26.13,3.84,43.4,14.94c10.61,6.9,18.86,7.48,37.87,15.62l0.03,0.01l0.02,0.01c9.14,3.75,14.51,8.65,17.14,13.8
	c2.62,5.15,2.69,10.73,0.49,16.61c-4.39,11.75-18.41,24.12-38.07,30.26l-0.02,0.01l-0.02,0.01c-9.59,3.11-17.95,10-27.82,15.63
	c-9.85,5.64-21.01,10.19-36.17,9.31c-6.46-0.38-11.62-1.66-16.04-3.55c-4.42-1.89-8.09-4.39-11.58-7.19
	c-6.98-5.61-13.06-12.66-21.96-17.89l-0.03-0.01l-0.02-0.02c-14.34-8.11-22.18-17.49-24.63-25.62
	C254.44,242.11,256.75,235.17,263.86,229.84z M269.49,788.95l-0.01,0.06v0.07c-2.04,26.74-17.12,41.3-40.28,46.59
	c-23.14,5.29-54.53,0.02-85.87-16.37c-0.01,0-0.02-0.01-0.03-0.01c-34.68-18.37-75.93-16.54-102.4-22.07
	c-13.23-2.76-21.87-6.92-25.83-14.64c-3.96-7.73-4.05-21.2,4.37-44.17l0.04-0.1l0.03-0.1c4.17-12.85,1.08-26.91-0.94-40.11
	c-2.02-13.19-3.01-25.2,1.5-33.56l0.04-0.08c5.77-11.12,14.23-15.1,24.73-18.86c10.51-3.77,22.96-6.73,32.79-16.59l0.06-0.05
	l0.05-0.05c9.09-9.59,15.92-21.62,23.91-30.15c6.74-7.2,13.49-11.97,23.66-12.04c0.12,0.01,0.23,0.01,0.35,0
	c1.78,0.01,3.67,0.16,5.67,0.47c13.5,2.04,25.27,11.48,36.61,26.86l32.74,59.67l0.01,0.03l0.02,0.02
	c8.71,18.19,27.11,38.2,42.7,58.61C259,752.78,271.06,773.27,269.49,788.95z M266.74,745.63c-4.29-6.79-9.22-13.52-14.29-20.16
	c-3.24-4.24-6.57-8.45-9.87-12.61c6.5,0.01,12.03-1.06,16.5-3.08c5.56-2.53,9.46-6.57,11.4-11.77c3.86-10.39-0.02-25.05-12.39-41.8
	c-12.37-16.74-33.32-35.63-64.1-54.51c0,0,0,0,0-0.01c-22.62-14.07-35.26-31.31-41.18-50.03c-5.93-18.73-5.1-38.98-0.53-58.97
	c8.76-38.37,31.26-75.69,45.62-99.11c3.86-2.84,1.38,5.28-14.54,34.84c-14.26,27.02-40.93,89.38-4.42,138.06
	c0.98-34.64,9.25-69.97,23.14-103.02c20.23-45.85,62.54-125.38,65.9-188.76c1.74,1.26,7.69,5.28,10.34,6.79
	c0.01,0.01,0.01,0.01,0.02,0.01c7.76,4.57,13.59,11.25,21.14,17.32c7.57,6.08,17.02,11.33,31.3,12.16c1.37,0.08,2.71,0.12,4.02,0.12
	c14.72,0,26.2-4.8,35.76-10.27c10.39-5.94,18.69-12.52,26.56-15.08c0.01-0.01,0.02-0.01,0.03-0.01c16.63-5.2,29.84-14.4,37.36-25.12
	c12.92,50.92,42.96,124.47,62.27,160.36c10.27,19.04,30.69,59.5,39.51,108.25c5.59-0.17,11.75,0.64,18.34,2.33
	c23.07-59.81-19.56-124.22-39.06-142.16c-7.87-7.64-8.25-11.06-4.34-10.9c21.14,18.71,48.91,56.32,59.01,98.78
	c4.61,19.36,5.59,39.72,0.65,59.81c2.41,1,4.87,2.09,7.36,3.27c37.03,18.03,50.72,33.71,44.14,55.11c-2.17-0.08-4.31-0.07-6.39-0.02
	c-0.19,0.01-0.38,0.01-0.58,0.01c5.37-16.96-6.51-29.47-38.17-43.79c-32.83-14.44-58.99-13.01-63.41,16.29
	c-0.28,1.53-0.51,3.1-0.68,4.68c-2.46,0.86-4.92,1.94-7.4,3.29c-15.41,8.44-23.83,23.74-28.51,42.52
	c-4.67,18.76-6.02,41.43-7.3,66.92c0,0.01,0,0.01,0,0.02c-0.79,12.81-6.07,30.15-11.41,48.51
	C404.76,772.27,330.12,788.89,266.74,745.63z M698.24,726.57c-0.48,8.44-6.59,14.71-17.88,21.51
	c-22.56,13.61-62.55,25.45-88.08,56.38c-22.18,26.39-49.22,40.88-73.03,42.76s-44.35-8-56.47-32.31l-0.02-0.05l-0.03-0.06
	c-7.52-14.3-4.39-36.85,1.94-60.65c6.33-23.79,15.43-48.23,16.65-68.08v-0.06c1.28-25.44,2.71-47.66,6.98-64.81
	c4.28-17.15,11.01-28.75,22.93-35.28c0.56-0.3,1.11-0.59,1.66-0.86c1.35,22.03,12.26,44.51,31.54,49.37
	c21.1,5.56,51.51-12.54,64.35-27.31c2.57-0.1,5.07-0.23,7.5-0.29c11.27-0.27,20.71,0.38,30.37,8.82l0.03,0.03l0.03,0.02
	c7.42,6.29,10.95,18.17,14.01,31.47c3.06,13.31,5.5,27.8,14.68,38.13l0.01,0.01l0.01,0.02C693.06,704.9,698.73,718.12,698.24,726.57
	z"/>
<path id="Right_Nostrial" inkscape:connector-curvature="0" sodipodi:nodetypes="aaaaaaa" class="st0" d="M344.09,204.89
	c0.65,2.08,3.99,1.73,5.93,2.73c1.7,0.87,3.06,2.79,4.97,2.84c1.82,0.05,4.65-0.63,4.89-2.44c0.31-2.39-3.17-3.9-5.41-4.78
	c-2.88-1.12-6.58-1.7-9.29-0.19C344.55,203.4,343.88,204.21,344.09,204.89L344.09,204.89z"/>
<path id="Left_Nostrial" inkscape:connector-curvature="0" sodipodi:nodetypes="aaaaaaa" class="st0" d="M324.32,204.89
	c-0.65,2.08-3.99,1.73-5.93,2.73c-1.7,0.87-3.06,2.79-4.97,2.84c-1.82,0.05-4.65-0.63-4.89-2.44c-0.31-2.39,3.17-3.9,5.41-4.78
	c2.88-1.12,6.58-1.7,9.29-0.19C323.86,203.4,324.53,204.21,324.32,204.89L324.32,204.89z"/>
</svg>
